<?xml version="1.0" standalone="no"?>
<!DOCTYPE svg PUBLIC "-//W3C//DTD SVG 20010904//EN"
 "http://www.w3.org/TR/2001/REC-SVG-20010904/DTD/svg10.dtd">
<svg version="1.0" xmlns="http://www.w3.org/2000/svg"
 width="192.000000pt" height="192.000000pt" viewBox="0 0 192.000000 192.000000"
 preserveAspectRatio="xMidYMid meet">

<g transform="translate(0.000000,192.000000) scale(0.100000,-0.100000)"
fill="#000000" stroke="none">
<path d="M1278 1899 c-10 -5 -23 -19 -29 -30 -8 -17 -7 -23 8 -35 17 -12 16
-13 -8 -14 -44 0 -119 -59 -166 -129 -50 -76 -93 -175 -129 -302 l-27 -93 34
-29 c19 -16 59 -46 91 -68 l56 -38 -14 -63 c-7 -35 -29 -144 -49 -243 -19 -99
-44 -220 -55 -270 -28 -130 -28 -129 18 -110 22 10 50 14 68 10 l32 -5 16 97
c33 186 88 478 100 523 11 44 12 45 66 56 30 6 71 16 91 23 l36 12 18 109 c36
222 7 412 -74 489 -20 19 -28 31 -18 28 12 -4 17 -1 18 11 2 33 -2 47 -23 65
-23 19 -36 21 -60 6z"/>
<path d="M930 1825 c-152 -33 -278 -101 -370 -201 -78 -85 -114 -162 -115
-244 l0 -65 32 -3 c19 -2 51 7 81 22 47 24 52 30 71 89 43 127 135 248 248
323 58 38 110 60 193 79 l55 13 -65 0 c-36 0 -94 -6 -130 -13z"/>
<path d="M1440 1776 c0 -2 20 -16 43 -29 69 -41 161 -147 203 -232 48 -101 70
-224 56 -320 -11 -78 -8 -86 51 -148 61 -65 99 -41 119 75 28 173 -68 383
-241 520 -62 50 -231 148 -231 134z"/>
<path d="M295 490 c-79 -23 -203 -81 -236 -111 -66 -60 -66 -107 0 -170 140
-135 631 -221 1079 -190 435 30 714 119 768 246 19 47 -16 104 -93 148 -7 5
-9 1 -6 -12 13 -50 -45 -88 -178 -115 -130 -27 -562 -41 -833 -27 -329 16
-460 44 -488 106 -17 38 -3 68 47 97 79 48 52 61 -60 28z"/>
</g>
</svg>
